<svg width="583" height="587" viewBox="0 0 583 587" fill="none" xmlns="http://www.w3.org/2000/svg">
<rect x="5.5" y="5.5" width="572" height="576" rx="94.5" fill="black" stroke="black" stroke-width="11"/>
<path d="M541.188 130L524.062 147.08L343.983 326.675L438.234 441.661L451.627 458H369.797L366.797 454.377L265.797 332.377L260.023 325.402L266.392 318.967L390.538 193.5H154.833L170.723 176.642L211.723 133.142L214.684 130H541.188Z" fill="#4D00FF" stroke="black" stroke-width="20"/>
<path d="M409.808 182L393.141 199.001L368.267 224.371L274.244 326.856L368.721 441.646L382.182 458H289.855L286.859 454.451L223.356 379.238L147.05 455.092L144.125 458H49.1025L65.8779 440.98L255.103 249H99.2607L115.238 232.125L159.738 185.125L162.697 182H409.808Z" fill="white" stroke="black" stroke-width="20"/>
</svg>
