<svg width="583" height="587" viewBox="0 0 583 587" fill="none" xmlns="http://www.w3.org/2000/svg">
<rect x="5.5" y="5.5" width="572" height="576" rx="94.5" fill="black" stroke="black" stroke-width="11"/>
<circle cx="291.5" cy="293.5" r="218.5" fill="black"/>
<path d="M544.897 111.5L526.915 129.435L347.158 308.709L441.121 423.344L455.184 440.5H372.062L368.912 436.696L267.912 314.696L261.86 307.386L268.522 300.629L370.786 196.896L374.795 176H156.175L172.859 158.298L213.859 114.798L216.968 111.5H544.897Z" fill="#4D00FF" stroke="black" stroke-width="21"/>
<path d="M387.064 164L385.396 175.443L381.896 199.443L381.424 202.676L379.136 205.006L276.936 309.089L371.221 423.646L384.682 440H292.355L289.359 436.451L225.856 361.238L149.55 437.092L146.625 440H51.6025L68.3779 422.98L257.603 231H101.761L117.738 214.125L162.238 167.125L165.197 164H387.064Z" fill="white" stroke="black" stroke-width="20"/>
</svg>
