<svg width="1024" height="1024" viewBox="0 0 1024 1024" fill="none" xmlns="http://www.w3.org/2000/svg">
<circle cx="506" cy="511.5" r="478" fill="black"/>
<path d="M977.818 173.539L945.84 205.432L609.601 540.769L785.583 755.468L810.59 785.977H657.798L652.197 779.212L463.611 551.415L452.851 538.416L464.697 526.399L655.843 332.509L663.593 292.105H256.421L286.09 260.627L362.645 179.404L368.173 173.539H977.818Z" fill="#4D00FF" stroke="black" stroke-width="37.3438"/>
<path d="M732.503 270.633L701.382 302.376L654.929 349.758L479.38 541.105L655.786 755.439L680.92 785.977H508.529L502.935 779.351L384.363 638.915L241.884 780.547L236.422 785.977H58.998L90.3213 754.197L443.639 395.734H152.653L182.486 364.225L265.576 276.467L271.101 270.633H732.503Z" fill="white" stroke="black" stroke-width="37.3438"/>
</svg>
