<svg width="722" height="588" viewBox="0 0 722 588" fill="none" xmlns="http://www.w3.org/2000/svg">
<circle cx="353.039" cy="297.943" r="257" fill="#AAFF00"/>
<circle cx="352.539" cy="297.943" r="218.5" fill="black"/>
<path d="M116.827 364.934L133.931 365.187L319.796 367.933L319.845 367.933L319.895 367.933L589.978 368.23L592.982 368.233L654.339 306.837L637 306.747L263.882 304.828L536.532 44.9933L549.625 32.516L531.539 32.5163L462.095 32.5157L459.245 32.5159L457.161 34.4597L309.999 171.644L309.906 171.732L116.827 364.934Z" fill="white" stroke="black" stroke-width="14.4754"/>
<path d="M589.946 181.481L577.671 193.823L449.527 322.652L544.461 438.167L554.186 450H469.61L467.441 447.428L402.795 370.747L225.13 557.748L222.989 560H136.534L148.268 547.755L440.657 242.598H17.1973L28.7402 230.388L72.835 183.746L74.9766 181.481H589.946Z" fill="white" stroke="black" stroke-width="14.4754"/>
</svg>
