<svg width="541" height="514" viewBox="0 0 541 514" fill="none" xmlns="http://www.w3.org/2000/svg">
<circle cx="265" cy="257" r="257" fill="black"/>
<path d="M516.688 75.5L499.562 92.5801L319.483 272.175L413.734 387.161L427.127 403.5H345.297L342.297 399.877L241.297 277.877L235.534 270.915L241.879 264.479L344.249 160.639L348.399 139H130.333L146.223 122.142L187.223 78.6416L190.184 75.5H516.688Z" fill="#4D00FF" stroke="black" stroke-width="20"/>
<path d="M385.308 127.5L368.641 144.501L343.767 169.871L249.744 272.356L344.221 387.146L357.682 403.5H265.355L262.359 399.951L198.856 324.738L122.55 400.592L119.625 403.5H24.6025L41.3779 386.48L230.603 194.5H74.7607L90.7383 177.625L135.238 130.625L138.197 127.5H385.308Z" fill="white" stroke="black" stroke-width="20"/>
</svg>
