<svg width="541" height="512" viewBox="0 0 541 512" fill="none" xmlns="http://www.w3.org/2000/svg">
<circle cx="264" cy="256" r="256" fill="black"/>
<path d="M516.688 75L499.562 92.0801L319.483 271.675L413.734 386.661L427.127 403H345.297L342.297 399.377L241.297 277.377L235.534 270.415L241.879 263.979L344.249 160.139L348.399 138.5H130.333L146.223 121.642L187.223 78.1416L190.184 75H516.688Z" fill="#4D00FF" stroke="black" stroke-width="20"/>
<path d="M385.308 127L368.641 144.001L343.767 169.371L249.744 271.856L344.221 386.646L357.682 403H265.355L262.359 399.451L198.856 324.238L122.55 400.092L119.625 403H24.6025L41.3779 385.98L230.603 194H74.7607L90.7383 177.125L135.238 130.125L138.197 127H385.308Z" fill="white" stroke="black" stroke-width="20"/>
</svg>
