<svg width="338" height="112" viewBox="0 0 338 112" fill="none" xmlns="http://www.w3.org/2000/svg">
<path d="M277.42 111.992H228.612V83.7432H277.42C284.107 83.7432 289.4 83.186 293.3 82.0717C297.2 80.9573 299.986 78.4501 301.658 74.5499C303.329 70.5382 304.165 64.3536 304.165 55.996C304.165 47.5269 303.329 41.3423 301.658 37.4421C299.986 33.5419 297.2 31.0346 293.3 29.9202C289.4 28.8059 284.107 28.2487 277.42 28.2487H228.612V0H277.42C289.79 0 300.487 2.22869 309.514 6.68608C318.54 11.032 325.505 17.3838 330.408 25.7414C335.311 34.099 337.762 44.1839 337.762 55.996C337.762 67.808 335.311 77.8929 330.408 86.2505C325.505 94.6081 318.54 101.016 309.514 105.473C300.487 109.819 289.79 111.992 277.42 111.992ZM252.18 111.992H220.756V0H252.18V111.992Z" fill="#4E3AFB"/>
<path d="M222.31 91.7665H105.137V70.5382L170.828 0H198.073L177.681 35.9377H173.669L148.931 61.3448V63.5178H222.31V91.7665ZM207.267 111.992H175.842V0H207.267V111.992Z" fill="#4E3AFB"/>
<path d="M31.4246 111.992H0V0H65.3565C75.2742 0 83.5761 1.33721 90.2622 4.01165C96.9482 6.68608 101.963 10.5863 105.306 15.7123C108.76 20.7269 110.488 26.9115 110.488 34.2662C110.488 40.1722 109.429 45.2982 107.312 49.6442C105.306 53.8787 102.074 57.3332 97.6168 60.0076C93.1595 62.5706 87.3649 64.2979 80.233 65.1893V66.8608C86.0276 68.3095 90.1507 70.4825 92.6023 73.3798C95.1653 76.1657 97.5054 79.6758 99.6227 83.9104L113.496 111.992H77.2243L63.8521 84.579C62.5149 81.7931 61.122 79.6201 59.6733 78.06C58.2247 76.5 56.3303 75.4413 53.9901 74.8842C51.65 74.2155 48.4184 73.8812 44.2953 73.8812H31.4246V111.992ZM31.4246 28.2487V50.4799H65.0222C69.591 50.4799 72.8226 49.8113 74.717 48.4741C76.6114 47.1369 77.5586 44.0724 77.5586 39.2807C77.5586 34.8234 76.6114 31.8703 74.717 30.4217C72.8226 28.973 69.591 28.2487 65.0222 28.2487H31.4246Z" fill="#4E3AFB"/>
</svg>
