<svg width="338" height="112" viewBox="0 0 338 112" fill="none" xmlns="http://www.w3.org/2000/svg">
<path d="M277.434 112H228.626V83.751H277.434C284.12 83.751 289.413 83.1939 293.314 82.0795C297.214 80.9652 300 78.4579 301.671 74.5577C303.343 70.546 304.178 64.3614 304.178 56.0038C304.178 47.5347 303.343 41.3501 301.671 37.4499C300 33.5497 297.214 31.0424 293.314 29.928C289.413 28.8137 284.12 28.2565 277.434 28.2565H228.626V0.0078125H277.434C289.803 0.0078125 300.501 2.2365 309.527 6.69389C318.554 11.0398 325.518 17.3916 330.421 25.7492C335.324 34.1068 337.776 44.1917 337.776 56.0038C337.776 67.8159 335.324 77.9007 330.421 86.2583C325.518 94.6159 318.554 101.023 309.527 105.481C300.501 109.827 289.803 112 277.434 112ZM252.194 112H220.77V0.0078125H252.194V112Z" fill="black"/>
<path d="M222.324 91.7743H105.15V70.546L170.841 0.0078125H198.087L177.694 35.9455H173.683L148.944 61.3526V63.5256H222.324V91.7743ZM207.28 112H175.856V0.0078125H207.28V112Z" fill="black"/>
<path d="M31.4383 112H0.0136719V0.0078125H65.3702C75.2879 0.0078125 83.5897 1.34503 90.2758 4.01946C96.9619 6.69389 101.976 10.5941 105.32 15.7201C108.774 20.7347 110.501 26.9193 110.501 34.274C110.501 40.18 109.443 45.306 107.325 49.652C105.32 53.8865 102.088 57.341 97.6305 60.0154C93.1731 62.5784 87.3785 64.3057 80.2467 65.1971V66.8687C86.0413 68.3173 90.1644 70.4903 92.616 73.3876C95.179 76.1735 97.5191 79.6837 99.6363 83.9182L113.51 112H77.238L63.8658 84.5868C62.5286 81.8009 61.1356 79.6279 59.687 78.0679C58.2383 76.5078 56.3439 75.4491 54.0038 74.892C51.6637 74.2234 48.4321 73.8891 44.309 73.8891H31.4383V112ZM31.4383 28.2565V50.4878H65.0359C69.6047 50.4878 72.8363 49.8191 74.7307 48.4819C76.6251 47.1447 77.5723 44.0803 77.5723 39.2886C77.5723 34.8312 76.6251 31.8781 74.7307 30.4295C72.8363 28.9808 69.6047 28.2565 65.0359 28.2565H31.4383Z" fill="black"/>
</svg>
