<svg width="514" height="515" viewBox="0 0 514 515" fill="none" xmlns="http://www.w3.org/2000/svg">
<circle cx="257" cy="257.5" r="257" fill="#4E3AFB"/>
<path d="M20.788 314.49L37.8926 314.743L223.758 317.489L223.805 317.49L223.852 317.489L393.935 317.786L396.941 317.791L458.27 256.423L440.974 256.304L167.2 254.412L331.071 90.4359L316.13 88.7613L256.863 82.1173L253.4 81.7296L20.788 314.49Z" fill="white" stroke="black" stroke-width="14.4754"/>
<path d="M493.907 141.038L481.632 153.38L353.488 282.209L448.422 397.724L458.146 409.557H373.571L371.402 406.984L306.612 330.133L228.95 407.448L226.832 409.557H140.176L152.296 397.242L344.298 202.154H31.1582L42.7012 189.944L86.7959 143.303L88.9375 141.038H493.907Z" fill="white" stroke="black" stroke-width="14.4754"/>
</svg>
